- 
http://www.Speed.Cd      fast  and The Hottest Private Tracker on the net

   signup is open now

Please Seed back to make the speed Faster!!!

------------------nfo--------------------------
-The Help 2011 DVDRiP XviD AC3- MiSTERE
 
http://www.imdb.com/title/tt1454029/

Video
ID                               : 0
Format                           : MPEG-4 Visual
Format profile                   : Advanced Simple@L5
Format settings, BVOP            : 2
Format settings, QPel            : No
Format settings, GMC             : No warppoints
Format settings, Matrix          : Default (H.263)
Muxing mode                      : Packed bitstream
Codec ID                         : XVID
Codec ID/Hint                    : XviD
Duration                         : 2h 26mn
Bit rate                         : 1 792 Kbps
Width                            : 720 pixels
Height                           : 384 pixels
Display aspect ratio             : 1.875
Frame rate                       : 23.976 fps
Color space                      : YUV
Chroma subsampling               : 4:2:0
Bit depth                        : 8 bits
Scan type                        : Progressive
Compression mode                 : Lossy
Bits/(Pixel*Frame)               : 0.270
Stream size                      : 1.83 GiB (82%)
Writing library                  : XviD 64

Audio
ID                               : 1
Format                           : AC-3
Format/Info                      : Audio Coding 3
Mode extension                   : CM (complete main)
Codec ID                         : 2000
Duration                         : 2h 26mn
Bit rate mode                    : Constant
Bit rate                         : 384 Kbps
Channel(s)                       : 6 channels
Channel positions                : Front: L C R, Side: L R, LFE
Sampling rate                    : 48.0 KHz
Bit depth                        : 16 bits
Compression mode                 : Lossy
Stream size                      : 402 MiB (18%)
Alignment                        : Aligned on interleaves
Interleave, duration             : 42 ms (1.00 video frame)

Resized Sharpened and Tweaked RGB

[img]http://i.imgur.com/bmwcE.png[/img]
[img]http://i.imgur.com/7uzm9.png[/img]
[img]http://i.imgur.com/JYX1x.png[/img]
[img]http://i.imgur.com/D6Fds.png[/img]
[img]http://i.imgur.com/IZMHu.png[/img]